<svg width="16" height="16" viewBox="0 0 16 16" fill="none" xmlns="http://www.w3.org/2000/svg">
    <path d="M14 .364H2c-1.105 0-2 .854-2 1.909v11.454c0 1.055.895 1.91 2 1.91h12c1.105 0 2-.855 2-1.91V2.273c0-1.055-.895-1.91-2-1.91z" fill="#CCCED4"/>
    <path d="M7 11.82c-.265 0-.52-.101-.707-.28l-3-2.864A.933.933 0 0 1 3 8c0-.253.105-.496.293-.675.187-.179.442-.28.707-.28.265 0 .52.101.707.28l2.26 2.159 4.795-4.993a.999.999 0 0 1 .315-.22 1.038 1.038 0 0 1 .764-.031c.124.043.237.109.334.193.195.172.311.41.322.662a.93.93 0 0 1-.261.686l-5.5 5.728a1.04 1.04 0 0 1-.715.31H7z" fill="#fff"/>
</svg>
